<?xml version="1.0" standalone="no"?>
<!DOCTYPE svg PUBLIC "-//W3C//DTD SVG 20010904//EN"
 "http://www.w3.org/TR/2001/REC-SVG-20010904/DTD/svg10.dtd">
<svg version="1.0" xmlns="http://www.w3.org/2000/svg"
 width="700.000000pt" height="700.000000pt" viewBox="0 0 700.000000 700.000000"
 preserveAspectRatio="xMidYMid meet">
<metadata>
Created by potrace 1.11, written by Peter Selinger 2001-2013
</metadata>
<g transform="translate(0.000000,700.000000) scale(0.100000,-0.100000)"
fill="#000000" stroke="none">
<path d="M2840 6344 c-426 -262 -893 -548 -1037 -637 -145 -88 -263 -164 -263
-169 0 -5 257 -429 571 -941 722 -1177 703 -1147 705 -1144 1 1 55 220 118
486 64 267 119 487 122 490 7 7 201 -43 354 -91 895 -285 1497 -764 1874
-1491 35 -67 76 -153 92 -190 l29 -68 8 43 c4 24 5 120 2 213 -22 630 -134
1109 -365 1565 -312 615 -808 1074 -1490 1379 -85 38 -156 73 -158 79 -1 5 47
218 108 472 61 255 109 467 108 471 -2 5 -352 -206 -778 -467z"/>
<path d="M3148 4118 c-182 -766 -887 -3782 -884 -3785 10 -10 195 -68 298 -93
186 -46 346 -63 578 -63 538 1 904 105 1300 368 529 353 882 969 916 1605 l7
115 -58 135 c-142 336 -281 591 -425 782 -117 155 -167 204 -220 218 -163 43
-357 53 -494 25 -82 -17 -213 -60 -298 -99 -32 -14 -58 -21 -58 -16 0 5 32
144 70 308 39 164 70 304 70 311 0 14 -173 99 -326 160 -124 49 -366 129 -414
137 l-35 6 -27 -114z m1063 -1432 c93 -17 125 -33 173 -86 76 -84 109 -206
109 -400 0 -414 -173 -829 -439 -1053 -176 -148 -322 -215 -521 -238 -94 -11
-266 -9 -279 4 -4 4 77 365 179 803 155 666 189 800 209 821 78 86 279 161
433 162 33 0 94 -6 136 -13z"/>
</g>
</svg>
